<svg width="683" height="281" viewBox="0 0 683 281" fill="none" xmlns="http://www.w3.org/2000/svg">
<g id="&#229;&#164;&#180;&#229;&#155;&#190;">
<g id="logo">
<g id="&#231;&#164;&#190;&#229;&#140;&#186;&#229;&#176;&#143;&#230;&#138;&#165;logo" clip-path="url(#clip0_0_1)">
<g id="Group">
<g id="Group_2">
<path id="Vector" d="M206.944 192.465L315.695 192.513L312.771 219.17H190.124C179.99 217.302 172.433 209.095 173.545 198.284L179.692 138.447L190.898 32.7465C192.163 20.8041 203.168 12.4334 214.866 12.2408L333.838 12.2601L331.043 39.3796L223.317 39.4662L215.549 112.199L212.163 145.013L206.949 192.465H206.944Z" fill="black"/>
<path id="Vector_2" d="M306.768 179.555L292.949 179.641C289.188 179.665 285.749 178.255 282.887 175.916C280.126 173.6 278.019 170.919 276.312 167.723L265.437 147.342C259.473 155.886 254.336 163.891 247.939 171.256C239.387 181.105 228.848 179.641 217.507 179.723L220.57 151.251C220.667 150.351 220.301 149.629 220.152 148.888C223.221 148.965 225.958 149.066 229.185 148.709L251.916 115.785L237.92 87.5101L227.17 87.3272L230.522 56.7035C236.871 56.5976 243.047 56.511 249.439 56.7564C256.895 57.0404 261.421 63.2643 264.408 69.2765L272.276 85.1082L285.802 66.2969C289.275 61.4689 294.527 57.5988 300.549 56.9442C306.907 56.2558 313.069 56.9442 319.413 56.7083L316.378 87.3272L306.071 87.4379L291.083 108.695L285.917 115.828L301.934 148.738L310.226 148.772L306.773 179.545L306.768 179.555Z" fill="black"/>
<g id="Group_3">
<g id="Group_4">
<path id="Vector_3" d="M659.033 175.169C664.338 187.251 665.103 200.06 664.035 212.937L634.748 212.951L634.964 206.279C629.841 209.596 624.772 211.849 618.947 211.882L600.905 211.979L604.157 180.522L618.625 180.623C611.218 171.29 606.956 160.95 606.504 149.33C606.384 146.211 606.259 143.381 605.407 140.594L602.464 166.635L597.601 212.633L569.362 212.619L575.201 157.947L580.949 101.161L588.217 31.9571L591.069 3.65826L672.947 3.79304C679.301 3.80267 683.659 9.51153 682.913 15.6199L677.724 57.9454C676.916 64.5207 674.236 70.3017 670.35 75.4859C666.291 80.2561 660.629 82.7784 654.247 83.1827C645.517 83.7363 637.066 83.4282 628.225 83.4667L631.915 53.05L642.756 52.8863C646.445 52.4868 648.874 49.5024 649.244 45.873L650.558 33.1845H616.504L610.352 88.2755L662.799 88.7231C671.091 88.7953 675.862 97.3442 675.352 105.055C672.784 128.603 668.638 153.581 659.037 175.174L659.033 175.169ZM637.624 149.951C641.217 139.309 642.915 129.585 644.637 119.4L607.697 119.371C607.365 121.667 607.086 123.554 607.067 125.821L635.849 125.946C635.767 134.322 634.844 142.538 637.624 149.951Z" fill="black"/>
<path id="Vector_4" d="M526.675 212.778L509.388 213.042L513.27 176.575L518.965 176.147C521.586 175.949 524.188 173.75 524.52 170.717L529.181 127.91L518.46 127.881L521.336 98.9904L532.153 98.8845L536.472 58.0994L525.198 58.162L528.166 29.1989L539.253 29.1749L542.119 0.0673813L574.629 -0.00482178L571.315 29.1075L581.339 29.2422L578.554 58.1668L568.333 58.3305L563.802 98.8653L574.321 98.9904L571.57 127.896L561.263 127.982L555.221 186.895C553.442 204.272 544.433 212.489 526.665 212.763L526.675 212.778Z" fill="black"/>
</g>
<g id="Group_5">
<g id="Group_6">
<path id="Vector_5" d="M407.001 214.597L365.958 214.881L369.989 176.527L386.997 176.373C391.657 176.33 395.928 173.095 396.443 168.045L409.257 42.0992L413.124 2.38269L452.401 2.61855L439.448 127.997L433.301 186.212C432.661 192.286 431.103 197.798 427.842 202.871C423.354 209.846 415.736 214.539 407.01 214.602L407.001 214.597Z" fill="black"/>
<path id="Vector_6" d="M364.14 164.604L340.923 164.589L344.362 130.264C347.022 130.365 350.461 130.716 353.111 128.969C355.761 127.222 356.29 124.026 356.925 120.815L366.954 26.4504L400.95 26.6092L392.297 107.727L388.382 145.119C387.79 150.755 385.332 155.679 381.095 159.275C376.28 163.107 370.542 164.618 364.135 164.613L364.14 164.604Z" fill="black"/>
</g>
<path id="Vector_7" d="M490.865 163.867C491.443 164.936 491.25 165.456 490.322 164.82L462.93 164.397C454.176 164.262 447.567 155.453 448.394 146.847L452.997 98.7594L460.347 26.7825L493.92 26.8547L483.68 122.687C483.656 127.294 486.416 130.351 490.808 130.384C492.073 130.394 493.285 130.514 494.723 130.822L490.865 163.867Z" fill="black"/>
</g>
</g>
</g>
<g id="Group_7">
<path id="Vector_8" d="M150.957 185.042L147.85 216.061L43.7649 216.036L46.8528 185.09L80.4689 185.023L89.5067 100.593L64.4569 100.829L67.9104 68.7518L92.508 68.7614L99.2466 5.69922L134.811 5.73291L127.981 68.7518L153.694 68.8577L150.433 100.521L124.739 100.613L121.006 134.909L115.773 184.994L150.957 185.042Z" fill="black"/>
<path id="Vector_9" d="M37.0118 216.008L6.0363 216.032L11.3608 166.163L15.0452 131.905L-0.00488281 131.727L3.50631 99.9579L22.5004 99.929L32.8705 59.2931L7.81114 59.4231L10.9279 30.1135L51.3452 30.0413C56.992 30.2242 60.9072 34.2868 61.5613 39.7887C62.1722 45.6756 61.3208 51.2208 59.9452 57.103L47.276 111.294L62.5377 114.423L58.584 150.129L44.722 145.484L41.3695 174.698L37.007 215.998L37.0118 216.008Z" fill="black"/>
<path id="Vector_10" d="M56.5157 24.2073L31.3169 24.135L25.5547 0.0480957L50.8978 0.0529092L56.5157 24.2073Z" fill="black"/>
</g>
</g>
<path id="Vector_11" d="M380.07 248.735C381.378 248.282 383.187 248.615 384.731 248.634L376.977 273.929C375.66 274.102 374.346 274.189 373.096 273.847L368.195 255.989L363.01 273.991C361.812 274.251 360.643 274.208 359.272 274.016L352.024 248.518C353.813 248.393 355.04 248.412 356.396 248.682L361.244 267.344L366.295 248.754C367.579 248.374 368.935 248.46 370.537 248.624L375.227 267.368L380.065 248.74L380.07 248.735Z" fill="black"/>
<path id="Vector_12" d="M27.6422 268.287C25.8818 272.095 22.1301 274.174 18.2293 274.184L7.8689 274.218L8.04205 248.417C14.2275 248.316 23.549 247.016 27.166 253.279C29.7489 257.755 29.874 263.45 27.6374 268.287H27.6422ZM24.5783 257.601C23.1739 252.085 17.3539 251.782 12.1545 252.258L12.0583 270.386C14.5594 270.608 16.7768 270.559 19.1865 270.299C24.6649 269.703 25.8145 262.468 24.5783 257.606V257.601Z" fill="black"/>
<path id="Vector_13" d="M495.954 268.052C497.32 267.724 498.451 268.538 500.172 267.782C499.615 271.445 496.887 274.256 492.881 274.391C490.062 274.487 487.013 273.77 485.339 271.2C482.924 267.493 482.713 262.078 485.43 258.343C488.542 254.068 495.411 254.333 498.609 258.232C500.485 260.518 500.711 263.325 500.471 265.977L487.931 266.006C487.931 268.437 489.009 270.449 490.88 270.858C492.987 271.315 495.464 270.723 495.954 268.056V268.052ZM496.022 262.665C495.954 259.276 493.814 258.915 491.765 258.785C490.466 258.814 489.216 258.988 488.595 259.921C488.061 260.725 487.551 261.683 487.989 262.911C490.716 262.338 493.169 262.502 496.022 262.665Z" fill="black"/>
<path id="Vector_14" d="M559.237 274.131L554.115 273.934L548.362 266.28C545.813 266.55 547.126 271.859 546.587 273.837C545.217 274.097 543.99 274.093 542.6 273.963L542.643 248.326C544.053 248.201 545.265 248.21 546.655 248.321C546.52 253.327 546.27 258.039 546.679 263.002L553.538 255.503L558.088 255.772L551.277 263.055C553.826 267.007 556.101 270.434 559.237 274.141V274.131Z" fill="black"/>
<path id="Vector_15" d="M437.562 267.941C438.784 267.753 440.169 268.013 441.939 268.172C441.021 272.095 437.832 274.41 433.936 274.473C430.477 274.526 427.279 273.034 425.975 269.563C424.778 266.372 424.84 262.487 426.404 259.406C427.669 256.908 430.319 255.652 432.488 255.373C435.513 254.978 438.327 255.767 440.217 258.073C442.108 260.379 442.348 263.214 442.271 265.972H429.39C429.16 268.09 430.401 270.473 432.161 270.93C434.373 271.503 437.245 271.209 437.553 267.946L437.562 267.941ZM437.769 263.055C438.236 260.234 436.014 258.776 433.585 258.718C431.156 258.66 428.996 260.465 429.467 263.132C432.421 262.222 434.744 262.203 437.764 263.05L437.769 263.055Z" fill="black"/>
<path id="Vector_16" d="M195.607 266.097C195.424 268.413 196.882 270.636 198.825 271.026C201.047 271.474 203.183 270.564 203.76 268.196C205.405 268.042 206.675 268.172 207.94 268.437C206.833 272.62 203.447 274.579 199.604 274.463C194.304 274.304 191.322 270.415 191.288 265.202C191.259 261.048 192.793 256.942 196.771 255.695C200.749 254.448 205.381 255.714 207.213 259.695C208.122 261.674 208.373 263.806 208.243 265.876L201.014 266.179C199.292 266.251 197.94 265.799 195.607 266.097ZM203.64 261.327C203 259.094 200.826 258.53 198.763 258.79C196.916 259.021 195.237 260.605 195.55 262.848C200.148 261.741 204.337 263.758 203.64 261.327Z" fill="black"/>
<path id="Vector_17" d="M88.7466 265.481C88.458 271.079 84.4754 274.839 79.5309 274.579C74.2256 274.3 71.1425 270.179 71.205 264.697C71.2531 260.432 73.3839 256.215 77.8234 255.373C80.8199 254.805 83.6962 255.445 85.8751 257.351C88.054 259.257 88.9246 262.049 88.7466 265.476V265.481ZM83.3932 269.457C85.043 267.06 85.1488 263.715 83.879 261.135C82.5371 258.415 78.0783 257.808 76.2843 260.345C74.4902 262.882 74.1583 270.218 79.1557 271.017C80.5795 271.243 82.311 271.022 83.3884 269.452L83.3932 269.457Z" fill="black"/>
<path id="Vector_18" d="M148.067 255.609L147.788 274.025C146.609 274.131 145.594 274.141 144.522 273.987C144.233 273.361 144.358 272.817 143.829 272.263C142.127 274.194 140.28 274.646 138.043 274.487C135.205 274.285 132.94 272.273 132.627 269.269C132.151 264.677 132.3 260.066 132.396 255.512C133.709 255.459 134.729 255.739 136.278 255.195C136.369 259.479 136.057 263.902 136.509 268.446C136.687 270.218 138.639 271.031 140.097 270.997C141.333 270.969 143.743 269.784 143.815 268.027L144.344 255.642C145.402 255.421 146.537 255.397 148.072 255.604L148.067 255.609Z" fill="black"/>
<path id="Vector_19" d="M665.223 255.917L661.731 265.197C659.749 270.458 657.743 275.488 656.012 280.783C654.526 281.058 653.323 281.091 651.717 280.783L654.781 272.894L647.96 255.897C649.528 255.416 650.99 255.796 652.741 255.811C653.65 259.888 654.983 263.561 656.767 267.888L661.25 255.897C662.443 255.657 663.496 255.56 665.223 255.917Z" fill="black"/>
<path id="Vector_20" d="M601.709 248.24L601.696 274.031L605.822 274.033L605.836 248.242L601.709 248.24Z" fill="black"/>
<path id="Vector_21" d="M260.92 259.392C259.954 259.686 258.188 258.891 257.298 259.792C253.22 263.922 255.399 266.651 254.821 273.674C253.653 274.198 252.287 274.078 250.815 273.809L250.805 255.84C251.96 255.32 253.412 255.286 254.648 255.767C255.389 256.056 254.528 256.889 254.956 257.645C256.606 255.642 258.842 254.834 261.276 255.604C261.228 256.797 261.796 258.343 260.92 259.387V259.392Z" fill="black"/>
</g>
</g>
</g>
<defs>
<clipPath id="clip0_0_1">
<rect width="683" height="281" fill="white"/>
</clipPath>
</defs>
</svg>
